<?xml version="1.0" encoding="UTF-8"?>
<svg id="Layer_1" data-name="Layer 1" xmlns="http://www.w3.org/2000/svg" viewBox="0 0 697.55 446.6">
  <defs>
    <style>
      .cls-1 {
        fill: #fff;
      }
    </style>
  </defs>
  <circle class="cls-1" cx="351" cy="212" r="1"/>
  <path class="cls-1" d="M292.34,150.33c0,.41-.33,.74-.74,.74s-.74-.33-.74-.74,.33-.74,.74-.74,.74,.33,.74,.74Z"/>
  <path class="cls-1" d="M318.58,128.48c0,.37-.3,.67-.67,.67s-.67-.3-.67-.67,.3-.67,.67-.67,.67,.3,.67,.67Z"/>
  <path class="cls-1" d="M256.01,51.31c0,.31-.25,.55-.55,.55s-.55-.25-.55-.55,.25-.55,.55-.55,.55,.25,.55,.55Z"/>
  <path class="cls-1" d="M439.04,133.19c0,.5-.41,.91-.91,.91s-.91-.41-.91-.91,.41-.91,.91-.91,.91,.41,.91,.91Z"/>
  <path class="cls-1" d="M366.68,81.92c0,.32-.26,.57-.57,.57s-.57-.26-.57-.57,.26-.57,.57-.57,.57,.26,.57,.57Z"/>
  <path class="cls-1" d="M447.05,34.12c0,.29-.24,.53-.53,.53s-.53-.24-.53-.53,.24-.53,.53-.53,.53,.24,.53,.53Z"/>
  <path class="cls-1" d="M390.6,181.23c0,.52-.42,.95-.95,.95s-.95-.42-.95-.95,.42-.95,.95-.95,.95,.42,.95,.95Z"/>
  <circle class="cls-1" cx="452.55" cy="85.68" r=".8"/>
  <path class="cls-1" d="M315.46,180.07c0,.41-.33,.74-.74,.74s-.74-.33-.74-.74,.33-.74,.74-.74,.74,.33,.74,.74Z"/>
  <path class="cls-1" d="M303.06,254.41c0,.27-.22,.48-.48,.48s-.48-.22-.48-.48,.22-.48,.48-.48,.48,.22,.48,.48Z"/>
  <path class="cls-1" d="M322.34,245.16c0,.43-.34,.77-.77,.77s-.77-.34-.77-.77,.34-.77,.77-.77,.77,.34,.77,.77Z"/>
  <circle class="cls-1" cx="224.02" cy="304.54" r=".57"/>
  <path class="cls-1" d="M254.4,199.22c0,.27-.22,.48-.48,.48s-.48-.22-.48-.48,.22-.48,.48-.48,.48,.22,.48,.48Z"/>
  <circle class="cls-1" cx="188.55" cy="159.44" r=".37"/>
  <path class="cls-1" d="M392.17,305.46c0,.51-.41,.92-.92,.92s-.92-.41-.92-.92,.41-.92,.92-.92,.92,.41,.92,.92Z"/>
  <path class="cls-1" d="M388.22,294.71c0,.41-.33,.74-.74,.74s-.74-.33-.74-.74,.33-.75,.74-.75,.74,.33,.74,.75Z"/>
  <path class="cls-1" d="M477.36,323.84c0,.4-.33,.73-.73,.73s-.73-.33-.73-.73,.33-.73,.73-.73,.73,.33,.73,.73Z"/>
  <path class="cls-1" d="M396.59,240.95c0,.38-.31,.68-.68,.68s-.68-.31-.68-.68,.31-.68,.68-.68,.68,.31,.68,.68Z"/>
  <circle class="cls-1" cx="476.38" cy="331.49" r=".48"/>
  <path class="cls-1" d="M492.36,375.26c0,.2-.16,.36-.36,.36s-.36-.16-.36-.36,.16-.36,.36-.36,.36,.16,.36,.36Z"/>
  <circle class="cls-1" cx="532.28" cy="306.42" r=".31"/>
  <path class="cls-1" d="M560.75,270.64c0,.15-.13,.28-.28,.28s-.28-.13-.28-.28,.13-.28,.28-.28,.28,.13,.28,.28Z"/>
  <circle class="cls-1" cx="436.04" cy="206.54" r=".74"/>
  <path class="cls-1" d="M397.4,167.82c0,.4-.33,.73-.73,.73s-.73-.33-.73-.73,.33-.73,.73-.73,.73,.33,.73,.73Z"/>
  <path class="cls-1" d="M369.05,219.34c0,.24-.2,.44-.44,.44s-.44-.2-.44-.44,.2-.44,.44-.44,.44,.2,.44,.44Z"/>
  <circle class="cls-1" cx="365.2" cy="296.96" r=".31"/>
  <circle class="cls-1" cx="411.77" cy="221.52" r=".64"/>
  <path class="cls-1" d="M440.9,187.02c0,.19-.15,.33-.33,.33s-.33-.15-.33-.33,.15-.34,.33-.34,.33,.15,.33,.34Z"/>
  <path class="cls-1" d="M418.53,174.68c0,.18-.14,.32-.32,.32s-.32-.14-.32-.32,.14-.32,.32-.32,.32,.14,.32,.32Z"/>
  <path class="cls-1" d="M356.67,104.74c0,.14-.11,.25-.25,.25s-.25-.11-.25-.25,.11-.25,.25-.25,.25,.11,.25,.25Z"/>
  <circle class="cls-1" cx="418" cy="374" r="1"/>
  <path class="cls-1" d="M438.6,372.9c0,.44-.36,.8-.8,.8s-.8-.36-.8-.8,.36-.8,.8-.8,.8,.36,.8,.8Z"/>
  <path class="cls-1" d="M354.45,412.25c0,.31-.25,.56-.56,.56s-.56-.25-.56-.56,.25-.56,.56-.56,.56,.25,.56,.56Z"/>
  <path class="cls-1" d="M273.05,334.91c0,.21-.17,.39-.39,.39s-.39-.17-.39-.39,.17-.39,.39-.39,.39,.17,.39,.39Z"/>
  <path class="cls-1" d="M336.34,403.53c0,.37-.3,.66-.66,.66s-.66-.3-.66-.66,.3-.66,.66-.66,.66,.3,.66,.66Z"/>
  <path class="cls-1" d="M358.86,388.11c0,.34-.28,.62-.62,.62s-.62-.28-.62-.62,.28-.62,.62-.62,.62,.28,.62,.62Z"/>
  <circle class="cls-1" cx="379.82" cy="310.09" r=".56"/>
  <circle class="cls-1" cx="443.54" cy="285.34" r=".36"/>
  <path class="cls-1" d="M314.29,246.17c0,.24-.2,.44-.44,.44s-.44-.2-.44-.44,.2-.44,.44-.44,.44,.2,.44,.44Z"/>
  <path class="cls-1" d="M243.93,164.08c0,.19-.16,.35-.35,.35s-.35-.16-.35-.35,.16-.35,.35-.35,.35,.16,.35,.35Z"/>
  <path class="cls-1" d="M342.95,386.87c0,.18-.15,.33-.33,.33s-.33-.15-.33-.33,.15-.33,.33-.33,.33,.15,.33,.33Z"/>
  <circle class="cls-1" cx="406.05" cy="353.48" r=".33"/>
  <path class="cls-1" d="M404.92,439.78c0,.11-.09,.21-.21,.21s-.21-.09-.21-.21,.09-.21,.21-.21,.21,.09,.21,.21Z"/>
  <path class="cls-1" d="M336.78,433.64c0,.09-.07,.17-.17,.17s-.17-.07-.17-.17,.07-.17,.17-.17,.17,.07,.17,.17Z"/>
  <path class="cls-1" d="M460.7,345.97c0,.28-.23,.51-.51,.51s-.51-.23-.51-.51,.23-.51,.51-.51,.51,.23,.51,.51Z"/>
  <path class="cls-1" d="M380.94,395.62c0,.14-.12,.26-.26,.26s-.26-.12-.26-.26,.12-.26,.26-.26,.26,.12,.26,.26Z"/>
  <path class="cls-1" d="M394.49,305.64c0,.23-.18,.41-.41,.41s-.41-.18-.41-.41,.18-.41,.41-.41,.41,.18,.41,.41Z"/>
  <path class="cls-1" d="M323.13,334.82c0,.16-.13,.29-.29,.29s-.29-.13-.29-.29,.13-.29,.29-.29,.29,.13,.29,.29Z"/>
  <circle class="cls-1" cx="476.05" cy="411.79" r=".44"/>
  <path class="cls-1" d="M522.22,317.91c0,.17-.14,.31-.31,.31s-.31-.14-.31-.31,.14-.31,.31-.31,.31,.14,.31,.31Z"/>
  <path class="cls-1" d="M613.56,265.01c0,.14-.11,.25-.25,.25s-.25-.11-.25-.25,.11-.25,.25-.25,.25,.11,.25,.25Z"/>
  <path class="cls-1" d="M474.2,330.2c0,.09-.07,.16-.16,.16s-.16-.07-.16-.16,.07-.16,.16-.16,.16,.07,.16,.16Z"/>
  <path class="cls-1" d="M573.47,352.58c0,.05-.04,.09-.09,.09s-.09-.04-.09-.09,.04-.09,.09-.09,.09,.04,.09,.09Z"/>
  <path class="cls-1" d="M622.02,274.53c0,.12-.1,.22-.22,.22s-.22-.1-.22-.22,.1-.22,.22-.22,.22,.1,.22,.22Z"/>
  <circle class="cls-1" cx="619.37" cy="265.48" r=".14"/>
  <circle class="cls-1" cx="293" cy="316" r="1"/>
  <path class="cls-1" d="M196.46,322.85c0,.55-.45,1-1,1s-1-.45-1-1,.45-1,1-1,1,.45,1,1Z"/>
  <path class="cls-1" d="M260.19,347.74c0,.39-.31,.7-.7,.7s-.7-.31-.7-.7,.31-.7,.7-.7,.7,.31,.7,.7Z"/>
  <circle class="cls-1" cx="334.43" cy="366.4" r=".53"/>
  <path class="cls-1" d="M197.83,368.08c0,.37-.3,.67-.67,.67s-.67-.3-.67-.67,.3-.67,.67-.67,.67,.3,.67,.67Z"/>
  <circle class="cls-1" cx="255.8" cy="418.87" r=".36"/>
  <circle class="cls-1" cx="156.12" cy="406.25" r=".66"/>
  <path class="cls-1" d="M321.43,350.16c0,.34-.28,.62-.62,.62s-.62-.28-.62-.62,.28-.62,.62-.62,.62,.28,.62,.62Z"/>
  <circle class="cls-1" cx="287.71" cy="331.45" r=".53"/>
  <circle class="cls-1" cx="388.49" cy="295.06" r=".41"/>
  <path class="cls-1" d="M349.65,255.91c0,.13-.11,.24-.24,.24s-.24-.11-.24-.24,.11-.24,.24-.24,.24,.11,.24,.24Z"/>
  <path class="cls-1" d="M418.55,282.91c0,.3-.24,.54-.54,.54s-.54-.24-.54-.54,.24-.54,.54-.54,.54,.24,.54,.54Z"/>
  <path class="cls-1" d="M418.94,284.84c0,.28-.23,.51-.51,.51s-.51-.23-.51-.51,.23-.51,.51-.51,.51,.23,.51,.51Z"/>
  <path class="cls-1" d="M406.56,287.99c0,.2-.16,.36-.36,.36s-.36-.16-.36-.36,.16-.36,.36-.36,.36,.16,.36,.36Z"/>
  <path class="cls-1" d="M348.22,193.9c0,.14-.12,.26-.26,.26s-.26-.12-.26-.26,.12-.26,.26-.26,.26,.12,.26,.26Z"/>
  <path class="cls-1" d="M346.7,277.89c0,.55-.45,1-1,1s-1-.45-1-1,.45-1,1-1,1,.45,1,1Z"/>
  <circle class="cls-1" cx="297.27" cy="344.49" r=".67"/>
  <path class="cls-1" d="M330.91,309.98c0,.5-.41,.91-.91,.91s-.91-.41-.91-.91,.41-.91,.91-.91,.91,.41,.91,.91Z"/>
  <path class="cls-1" d="M361.42,257.41c0,.34-.27,.61-.61,.61s-.61-.27-.61-.61,.27-.61,.61-.61,.61,.27,.61,.61Z"/>
  <circle class="cls-1" cx="372.67" cy="357.53" r=".53"/>
  <circle class="cls-1" cx="378.38" cy="395.94" r=".43"/>
  <path class="cls-1" d="M280.67,362.15c0,.19-.15,.34-.34,.34s-.34-.15-.34-.34,.15-.34,.34-.34,.34,.15,.34,.34Z"/>
  <path class="cls-1" d="M344.13,346.87c0,.32-.26,.59-.59,.59s-.59-.26-.59-.59,.26-.59,.59-.59,.59,.26,.59,.59Z"/>
  <circle class="cls-1" cx="285.2" cy="293.05" r=".48"/>
  <path class="cls-1" d="M314.68,256.47c0,.27-.22,.49-.49,.49s-.49-.22-.49-.49,.22-.49,.49-.49,.49,.22,.49,.49Z"/>
  <path class="cls-1" d="M330.5,346.9c0,.19-.15,.35-.35,.35s-.35-.15-.35-.35,.15-.35,.35-.35,.35,.15,.35,.35Z"/>
  <path class="cls-1" d="M413.12,246.88c0,.32-.26,.58-.58,.58s-.58-.26-.58-.58,.26-.58,.58-.58,.58,.26,.58,.58Z"/>
  <path class="cls-1" d="M500.32,236.46c0,.31-.25,.55-.55,.55s-.55-.25-.55-.55,.25-.55,.55-.55,.55,.25,.55,.55Z"/>
  <path class="cls-1" d="M350.82,275.35c0,.24-.2,.44-.44,.44s-.44-.2-.44-.44,.2-.44,.44-.44,.44,.2,.44,.44Z"/>
  <path class="cls-1" d="M443.71,205.56c0,.13-.11,.24-.24,.24s-.24-.11-.24-.24,.11-.24,.24-.24,.24,.11,.24,.24Z"/>
  <circle class="cls-1" cx="67" cy="263" r="1"/>
  <path class="cls-1" d="M65.07,191.3c0,.52-.42,.95-.95,.95s-.95-.42-.95-.95,.42-.95,.95-.95,.95,.42,.95,.95Z"/>
  <path class="cls-1" d="M140.68,349.46c0,.45-.36,.81-.81,.81s-.81-.36-.81-.81,.36-.81,.81-.81,.81,.36,.81,.81Z"/>
  <circle class="cls-1" cx="147.42" cy="402.68" r=".6"/>
  <path class="cls-1" d="M137.87,314.66c0,.42-.34,.76-.76,.76s-.76-.34-.76-.76,.34-.76,.76-.76,.76,.34,.76,.76Z"/>
  <path class="cls-1" d="M181.48,293.66c0,.24-.2,.44-.44,.44s-.44-.2-.44-.44,.2-.44,.44-.44,.44,.2,.44,.44Z"/>
  <path class="cls-1" d="M235.43,246.73c0,.35-.29,.64-.64,.64s-.64-.29-.64-.64,.29-.64,.64-.64,.64,.29,.64,.64Z"/>
  <path class="cls-1" d="M156.28,229.63c0,.22-.18,.4-.4,.4s-.4-.18-.4-.4,.18-.4,.4-.4,.4,.18,.4,.4Z"/>
  <path class="cls-1" d="M107.45,173.02c0,.3-.24,.54-.54,.54s-.54-.24-.54-.54,.24-.54,.54-.54,.54,.24,.54,.54Z"/>
  <path class="cls-1" d="M101.76,132.17c0,.16-.13,.29-.29,.29s-.29-.13-.29-.29,.13-.29,.29-.29,.29,.13,.29,.29Z"/>
  <circle class="cls-1" cx="7.02" cy="174.59" r=".28"/>
  <circle class="cls-1" cx="96.12" cy="99.52" r=".24"/>
  <circle class="cls-1" cx="86.31" cy="134.35" r=".52"/>
  <path class="cls-1" d="M148.69,121.24c0,.16-.13,.29-.29,.29s-.29-.13-.29-.29,.13-.29,.29-.29,.29,.13,.29,.29Z"/>
  <path class="cls-1" d="M83.46,51.46c0,.27-.22,.49-.49,.49s-.49-.22-.49-.49,.22-.49,.49-.49,.49,.22,.49,.49Z"/>
  <path class="cls-1" d="M105.35,78.65c0,.18-.15,.33-.33,.33s-.33-.15-.33-.33,.15-.33,.33-.33,.33,.15,.33,.33Z"/>
  <path class="cls-1" d="M106.93,333.42c0,.55-.45,1-1,1s-1-.45-1-1,.45-1,1-1,1,.45,1,1Z"/>
  <path class="cls-1" d="M54.99,325.81c0,.28-.22,.5-.5,.5s-.5-.22-.5-.5,.22-.5,.5-.5,.5,.22,.5,.5Z"/>
  <circle class="cls-1" cx="202.72" cy="359.74" r=".91"/>
  <path class="cls-1" d="M122.25,346.86c0,.36-.29,.65-.65,.65s-.65-.29-.65-.65,.29-.65,.65-.65,.65,.29,.65,.65Z"/>
  <circle class="cls-1" cx="133.44" cy="267.14" r=".83"/>
  <path class="cls-1" d="M39.14,314.43c0,.29-.23,.52-.52,.52s-.52-.23-.52-.52,.23-.52,.52-.52,.52,.23,.52,.52Z"/>
  <path class="cls-1" d="M87.24,270.55c0,.38-.31,.69-.69,.69s-.69-.31-.69-.69,.31-.69,.69-.69,.69,.31,.69,.69Z"/>
  <path class="cls-1" d="M128.9,278.08c0,.23-.18,.41-.41,.41s-.41-.18-.41-.41,.18-.41,.41-.41,.41,.18,.41,.41Z"/>
  <circle class="cls-1" cx="159.54" cy="392.7" r=".81"/>
  <circle class="cls-1" cx="175.91" cy="341.38" r=".54"/>
  <path class="cls-1" d="M156.8,370.89c0,.19-.15,.34-.34,.34s-.34-.15-.34-.34,.15-.34,.34-.34,.34,.15,.34,.34Z"/>
  <path class="cls-1" d="M64.7,303.59c0,.27-.22,.5-.5,.5s-.5-.22-.5-.5,.22-.5,.5-.5,.5,.22,.5,.5Z"/>
  <circle class="cls-1" cx=".33" cy="214.87" r=".33"/>
  <circle class="cls-1" cx="24.78" cy="289.87" r=".48"/>
  <circle class="cls-1" cx="50.07" cy="328.07" r=".48"/>
  <circle class="cls-1" cx="209" cy="262" r="1"/>
  <circle class="cls-1" cx="216.24" cy="244.94" r=".53"/>
  <path class="cls-1" d="M120.81,227.52c0,.44-.36,.8-.8,.8s-.8-.36-.8-.8,.36-.8,.8-.8,.8,.36,.8,.8Z"/>
  <path class="cls-1" d="M41.62,198.2c0,.4-.32,.72-.72,.72s-.72-.32-.72-.72,.32-.72,.72-.72,.72,.32,.72,.72Z"/>
  <path class="cls-1" d="M287.35,355.77c0,.33-.27,.6-.6,.6s-.6-.27-.6-.6,.27-.6,.6-.6,.6,.27,.6,.6Z"/>
  <path class="cls-1" d="M202.67,263.23c0,.28-.22,.5-.5,.5s-.5-.22-.5-.5,.22-.5,.5-.5,.5,.22,.5,.5Z"/>
  <path class="cls-1" d="M357.86,264.26c0,.3-.25,.55-.55,.55s-.55-.25-.55-.55,.25-.55,.55-.55,.55,.25,.55,.55Z"/>
  <circle class="cls-1" cx="417.17" cy="343.17" r=".41"/>
  <path class="cls-1" d="M251.29,208.82c0,.49-.4,.89-.89,.89s-.89-.4-.89-.89,.4-.89,.89-.89,.89,.4,.89,.89Z"/>
  <circle class="cls-1" cx="257.87" cy="138.94" r=".74"/>
  <path class="cls-1" d="M200.52,230.69c0,.37-.3,.68-.68,.68s-.68-.3-.68-.68,.3-.68,.68-.68,.68,.3,.68,.68Z"/>
  <path class="cls-1" d="M293.91,270.82c0,.35-.28,.63-.63,.63s-.63-.28-.63-.63,.28-.63,.63-.63,.63,.28,.63,.63Z"/>
  <circle class="cls-1" cx="281.29" cy="296.85" r=".53"/>
  <path class="cls-1" d="M301.82,327.8c0,.25-.2,.44-.44,.44s-.44-.2-.44-.44,.2-.44,.44-.44,.44,.2,.44,.44Z"/>
  <path class="cls-1" d="M234.71,296.62c0,.17-.13,.3-.3,.3s-.3-.13-.3-.3,.13-.3,.3-.3,.3,.13,.3,.3Z"/>
  <path class="cls-1" d="M183.58,283.97c0,.1-.08,.19-.19,.19s-.19-.08-.19-.19,.08-.19,.19-.19,.19,.08,.19,.19Z"/>
  <path class="cls-1" d="M234.51,330.03c0,.42-.34,.76-.76,.76s-.76-.34-.76-.76,.34-.76,.76-.76,.76,.34,.76,.76Z"/>
  <circle class="cls-1" cx="286.79" cy="325.36" r=".49"/>
  <path class="cls-1" d="M266.58,407.43c0,.26-.21,.47-.47,.47s-.47-.21-.47-.47,.21-.47,.47-.47,.47,.21,.47,.47Z"/>
  <circle class="cls-1" cx="165.92" cy="350.27" r=".65"/>
  <circle class="cls-1" cx="190.96" cy="342.38" r=".37"/>
  <circle class="cls-1" cx="78.64" cy="426.53" r=".54"/>
  <circle class="cls-1" cx="158.97" cy="381.5" r=".41"/>
  <path class="cls-1" d="M262.09,321.44c0,.33-.27,.6-.6,.6s-.6-.27-.6-.6,.27-.6,.6-.6,.6,.27,.6,.6Z"/>
  <path class="cls-1" d="M267.21,406.03c0,.26-.21,.47-.47,.47s-.47-.21-.47-.47,.21-.47,.47-.47,.47,.21,.47,.47Z"/>
  <circle class="cls-1" cx="228.86" cy="295.73" r=".51"/>
  <path class="cls-1" d="M265.45,303.83c0,.25-.2,.45-.45,.45s-.45-.2-.45-.45,.2-.45,.45-.45,.45,.2,.45,.45Z"/>
  <circle class="cls-1" cx="359.74" cy="326.55" r=".4"/>
  <path class="cls-1" d="M452.99,382.88c0,.19-.15,.35-.35,.35s-.35-.15-.35-.35,.15-.35,.35-.35,.35,.15,.35,.35Z"/>
  <path class="cls-1" d="M407.68,399.06c0,.14-.11,.25-.25,.25s-.25-.11-.25-.25,.11-.25,.25-.25,.25,.11,.25,.25Z"/>
  <path class="cls-1" d="M367.61,431.31c0,.09-.07,.15-.15,.15s-.15-.07-.15-.15,.07-.15,.15-.15,.15,.07,.15,.15Z"/>
  <circle class="cls-1" cx="157" cy="373" r="1"/>
  <circle class="cls-1" cx="63.19" cy="341.91" r=".74"/>
  <path class="cls-1" d="M123.12,426.4c0,.32-.26,.57-.57,.57s-.57-.26-.57-.57,.26-.57,.57-.57,.57,.26,.57,.57Z"/>
  <circle class="cls-1" cx="131.7" cy="421.71" r=".76"/>
  <path class="cls-1" d="M46.87,427.8c0,.41-.33,.74-.74,.74s-.74-.33-.74-.74,.33-.74,.74-.74,.74,.33,.74,.74Z"/>
  <path class="cls-1" d="M59.1,445.98c0,.34-.28,.62-.62,.62s-.62-.28-.62-.62,.28-.62,.62-.62,.62,.28,.62,.62Z"/>
  <path class="cls-1" d="M39.46,395.48c0,.18-.15,.33-.33,.33s-.33-.15-.33-.33,.15-.33,.33-.33,.33,.15,.33,.33Z"/>
  <path class="cls-1" d="M86.92,444.89c0,.49-.39,.88-.88,.88s-.88-.39-.88-.88,.39-.88,.88-.88,.88,.39,.88,.88Z"/>
  <path class="cls-1" d="M5.5,436.36c0,.25-.2,.46-.46,.46s-.46-.2-.46-.46,.2-.46,.46-.46,.46,.2,.46,.46Z"/>
  <path class="cls-1" d="M91.97,392.68c0,.24-.19,.43-.43,.43s-.43-.19-.43-.43,.19-.43,.43-.43,.43,.19,.43,.43Z"/>
  <path class="cls-1" d="M183.86,332.52c0,.13-.11,.24-.24,.24s-.24-.11-.24-.24,.11-.24,.24-.24,.24,.11,.24,.24Z"/>
  <path class="cls-1" d="M125.23,420.85c0,.53-.43,.96-.96,.96s-.96-.43-.96-.96,.43-.96,.96-.96,.96,.43,.96,.96Z"/>
  <circle class="cls-1" cx="188.21" cy="405.54" r=".48"/>
  <circle class="cls-1" cx="201.4" cy="445.69" r=".72"/>
  <path class="cls-1" d="M105.57,434.66c0,.36-.29,.66-.66,.66s-.66-.29-.66-.66,.29-.66,.66-.66,.66,.29,.66,.66Z"/>
  <path class="cls-1" d="M29.74,442.15c0,.48-.39,.87-.87,.87s-.87-.39-.87-.87,.39-.87,.87-.87,.87,.39,.87,.87Z"/>
  <circle class="cls-1" cx="573" cy="314" r="1"/>
  <path class="cls-1" d="M486.24,301.92c0,.53-.43,.95-.95,.95s-.95-.43-.95-.95,.43-.95,.95-.95,.95,.43,.95,.95Z"/>
  <circle class="cls-1" cx="584.37" cy="342.51" r=".98"/>
  <circle class="cls-1" cx="554.83" cy="433.94" r=".96"/>
  <circle class="cls-1" cx="567.86" cy="389.25" r=".75"/>
  <path class="cls-1" d="M530.09,390.66c0,.38-.3,.68-.68,.68s-.68-.3-.68-.68,.3-.68,.68-.68,.68,.3,.68,.68Z"/>
  <path class="cls-1" d="M480.99,434.96c0,.29-.23,.52-.52,.52s-.52-.23-.52-.52,.23-.52,.52-.52,.52,.23,.52,.52Z"/>
  <path class="cls-1" d="M528.91,327.48c0,.55-.44,.99-.99,.99s-.99-.44-.99-.99,.44-.99,.99-.99,.99,.44,.99,.99Z"/>
  <path class="cls-1" d="M604.39,338.07c0,.51-.41,.92-.92,.92s-.92-.41-.92-.92,.41-.92,.92-.92,.92,.41,.92,.92Z"/>
  <path class="cls-1" d="M477.58,339.66c0,.29-.24,.53-.53,.53s-.53-.24-.53-.53,.24-.53,.53-.53,.53,.24,.53,.53Z"/>
  <circle class="cls-1" cx="431.75" cy="274.52" r=".36"/>
  <path class="cls-1" d="M579.02,305.48c0,.52-.42,.94-.94,.94s-.94-.42-.94-.94,.42-.94,.94-.94,.94,.42,.94,.94Z"/>
  <circle class="cls-1" cx="655.06" cy="229.12" r=".57"/>
  <circle class="cls-1" cx="525.6" cy="401.3" r=".48"/>
  <path class="cls-1" d="M615.28,388.29c0,.23-.18,.41-.41,.41s-.41-.18-.41-.41,.18-.41,.41-.41,.41,.18,.41,.41Z"/>
  <path class="cls-1" d="M523.07,389.49c0,.39-.32,.71-.71,.71s-.71-.32-.71-.71,.32-.71,.71-.71,.71,.32,.71,.71Z"/>
  <path class="cls-1" d="M535.43,325.3c0,.21-.17,.38-.38,.38s-.38-.17-.38-.38,.17-.38,.38-.38,.38,.17,.38,.38Z"/>
  <circle class="cls-1" cx="463.85" cy="387.37" r=".61"/>
  <path class="cls-1" d="M552.73,341.25c0,.33-.27,.59-.59,.59s-.59-.27-.59-.59,.27-.59,.59-.59,.59,.27,.59,.59Z"/>
  <path class="cls-1" d="M487.49,422.22c0,.38-.31,.7-.7,.7s-.7-.31-.7-.7,.31-.7,.7-.7,.7,.31,.7,.7Z"/>
  <circle class="cls-1" cx="471.05" cy="437.74" r=".63"/>
  <path class="cls-1" d="M413.81,434.54c0,.26-.21,.46-.46,.46s-.46-.21-.46-.46,.21-.46,.46-.46,.46,.21,.46,.46Z"/>
  <path class="cls-1" d="M439.68,398.79c0,.38-.31,.69-.69,.69s-.69-.31-.69-.69,.31-.69,.69-.69,.69,.31,.69,.69Z"/>
  <path class="cls-1" d="M511.38,398.97c0,.21-.17,.37-.37,.37s-.37-.17-.37-.37,.17-.37,.37-.37,.37,.17,.37,.37Z"/>
  <path class="cls-1" d="M469.36,340.52c0,.24-.19,.43-.43,.43s-.43-.19-.43-.43,.19-.43,.43-.43,.43,.19,.43,.43Z"/>
  <path class="cls-1" d="M556.61,351.7c0,.19-.16,.35-.35,.35s-.35-.16-.35-.35,.16-.35,.35-.35,.35,.16,.35,.35Z"/>
  <path class="cls-1" d="M493.47,404.99c0,.22-.18,.4-.4,.4s-.4-.18-.4-.4,.18-.4,.4-.4,.4,.18,.4,.4Z"/>
  <path class="cls-1" d="M421.92,324.53c0,.15-.12,.27-.27,.27s-.27-.12-.27-.27,.12-.27,.27-.27,.27,.12,.27,.27Z"/>
  <path class="cls-1" d="M586.41,406.29c0,.16-.13,.29-.29,.29s-.29-.13-.29-.29,.13-.29,.29-.29,.29,.13,.29,.29Z"/>
  <circle class="cls-1" cx="506.53" cy="345.22" r=".18"/>
  <circle class="cls-1" cx="633" cy="388" r="1"/>
  <path class="cls-1" d="M697.55,358.17c0,.43-.35,.79-.79,.79s-.79-.35-.79-.79,.35-.79,.79-.79,.79,.35,.79,.79Z"/>
  <circle class="cls-1" cx="683.41" cy="348.88" r=".77"/>
  <path class="cls-1" d="M687.92,267.04c0,.33-.27,.6-.6,.6s-.6-.27-.6-.6,.27-.6,.6-.6,.6,.27,.6,.6Z"/>
  <circle class="cls-1" cx="540.42" cy="355.26" r=".95"/>
  <circle class="cls-1" cx="572.11" cy="256.89" r=".53"/>
  <circle class="cls-1" cx="476.62" cy="335.94" r=".81"/>
  <path class="cls-1" d="M400.45,418.99c0,.4-.33,.73-.73,.73s-.73-.33-.73-.73,.33-.73,.73-.73,.73,.33,.73,.73Z"/>
  <path class="cls-1" d="M636.95,443.82c0,.43-.35,.77-.77,.77s-.77-.35-.77-.77,.35-.77,.77-.77,.77,.35,.77,.77Z"/>
  <path class="cls-1" d="M541.73,390.06c0,.27-.22,.49-.49,.49s-.49-.22-.49-.49,.22-.49,.49-.49,.49,.22,.49,.49Z"/>
  <circle class="cls-1" cx="443.61" cy="330.46" r=".36"/>
  <path class="cls-1" d="M652.65,429.67c0,.32-.26,.58-.58,.58s-.57-.26-.57-.58,.26-.58,.57-.58,.58,.26,.58,.58Z"/>
  <path class="cls-1" d="M585.51,445.4c0,.26-.21,.47-.47,.47s-.47-.21-.47-.47,.21-.47,.47-.47,.47,.21,.47,.47Z"/>
  <path class="cls-1" d="M641.38,443.13c0,.37-.3,.67-.67,.67s-.67-.3-.67-.67,.3-.67,.67-.67,.67,.3,.67,.67Z"/>
  <path class="cls-1" d="M628.07,403.62c0,.24-.19,.43-.43,.43s-.43-.19-.43-.43,.19-.43,.43-.43,.43,.19,.43,.43Z"/>
  <path class="cls-1" d="M675.11,367.9c0,.31-.25,.57-.57,.57s-.57-.25-.57-.57,.25-.57,.57-.57,.57,.25,.57,.57Z"/>
  <path class="cls-1" d="M616.39,408.84c0,.28-.23,.51-.51,.51s-.51-.23-.51-.51,.23-.51,.51-.51,.51,.23,.51,.51Z"/>
  <path class="cls-1" d="M649.19,324.03c0,.27-.22,.49-.49,.49s-.49-.22-.49-.49,.22-.49,.49-.49,.49,.22,.49,.49Z"/>
  <path class="cls-1" d="M546.9,397.32c0,.17-.14,.31-.32,.31s-.31-.14-.31-.31,.14-.32,.31-.32,.32,.14,.32,.32Z"/>
  <circle class="cls-1" cx="505" cy="256" r="1"/>
  <path class="cls-1" d="M499.64,255.39c0,.48-.39,.88-.88,.88s-.88-.39-.88-.88,.39-.88,.88-.88,.88,.39,.88,.88Z"/>
  <path class="cls-1" d="M429.01,290.87c0,.36-.29,.65-.65,.65s-.65-.29-.65-.65,.29-.65,.65-.65,.65,.29,.65,.65Z"/>
  <path class="cls-1" d="M391.26,215.58c0,.24-.19,.43-.43,.43s-.43-.19-.43-.43,.19-.43,.43-.43,.43,.19,.43,.43Z"/>
  <path class="cls-1" d="M413.68,300.47c0,.53-.43,.96-.96,.96s-.96-.43-.96-.96,.43-.96,.96-.96,.96,.43,.96,.96Z"/>
  <path class="cls-1" d="M342.46,222.03c0,.4-.32,.72-.72,.72s-.72-.32-.72-.72,.32-.72,.72-.72,.72,.32,.72,.72Z"/>
  <circle class="cls-1" cx="420.13" cy="236.04" r=".72"/>
  <path class="cls-1" d="M479.23,335.29c0,.24-.2,.44-.44,.44s-.44-.2-.44-.44,.2-.44,.44-.44,.44,.2,.44,.44Z"/>
  <circle class="cls-1" cx="434.34" cy="270.07" r=".56"/>
  <path class="cls-1" d="M515.53,308.59c0,.16-.13,.29-.29,.29s-.29-.13-.29-.29,.13-.29,.29-.29,.29,.13,.29,.29Z"/>
  <path class="cls-1" d="M359.6,324.92c0,.21-.17,.38-.38,.38s-.38-.17-.38-.38,.17-.38,.38-.38,.38,.17,.38,.38Z"/>
  <path class="cls-1" d="M417.34,323.95c0,.21-.17,.38-.38,.38s-.38-.17-.38-.38,.17-.38,.38-.38,.38,.17,.38,.38Z"/>
  <path class="cls-1" d="M379.13,255.44c0,.3-.25,.55-.55,.55s-.55-.25-.55-.55,.25-.55,.55-.55,.55,.25,.55,.55Z"/>
  <path class="cls-1" d="M434.47,318.91c0,.24-.2,.44-.44,.44s-.44-.2-.44-.44,.2-.44,.44-.44,.44,.2,.44,.44Z"/>
  <circle class="cls-1" cx="420.03" cy="198.92" r=".33"/>
  <path class="cls-1" d="M409.57,267.49c0,.12-.1,.22-.22,.22s-.22-.1-.22-.22,.1-.22,.22-.22,.22,.1,.22,.22Z"/>
  <path class="cls-1" d="M475.05,190.98c0,.39-.31,.7-.7,.7s-.7-.31-.7-.7,.31-.7,.7-.7,.7,.31,.7,.7Z"/>
  <circle class="cls-1" cx="535.68" cy="95.72" r=".46"/>
  <path class="cls-1" d="M487.17,262.89c0,.26-.21,.48-.48,.48s-.48-.21-.48-.48,.21-.48,.48-.48,.48,.21,.48,.48Z"/>
  <path class="cls-1" d="M526.92,314.87c0,.13-.11,.24-.24,.24s-.24-.11-.24-.24,.11-.24,.24-.24,.24,.11,.24,.24Z"/>
  <path class="cls-1" d="M417.18,140.32c0,.24-.2,.44-.44,.44s-.44-.2-.44-.44,.2-.44,.44-.44,.44,.2,.44,.44Z"/>
  <path class="cls-1" d="M458.89,160.2c0,.17-.14,.31-.31,.31s-.31-.14-.31-.31,.14-.31,.31-.31,.31,.14,.31,.31Z"/>
  <path class="cls-1" d="M373.9,146.65c0,.15-.12,.28-.28,.28s-.28-.12-.28-.28,.12-.28,.28-.28,.28,.12,.28,.28Z"/>
  <path class="cls-1" d="M447.01,79.32c0,.11-.09,.2-.2,.2s-.2-.09-.2-.2,.09-.2,.2-.2,.2,.09,.2,.2Z"/>
  <path class="cls-1" d="M438.05,151.93c0,.38-.31,.68-.68,.68s-.68-.31-.68-.68,.31-.68,.68-.68,.68,.31,.68,.68Z"/>
  <path class="cls-1" d="M519.43,224.81c0,.36-.29,.66-.66,.66s-.66-.29-.66-.66,.29-.66,.66-.66,.66,.29,.66,.66Z"/>
  <path class="cls-1" d="M476.48,236.56c0,.26-.21,.46-.46,.46s-.46-.21-.46-.46,.21-.46,.46-.46,.46,.21,.46,.46Z"/>
  <path class="cls-1" d="M419.89,247.99c0,.2-.16,.35-.35,.35s-.35-.16-.35-.35,.16-.35,.35-.35,.35,.16,.35,.35Z"/>
  <circle class="cls-1" cx="361.35" cy="161.91" r=".56"/>
  <path class="cls-1" d="M407.57,101.11c0,.23-.19,.41-.41,.41s-.41-.19-.41-.41,.19-.41,.41-.41,.41,.19,.41,.41Z"/>
  <path class="cls-1" d="M461.03,241.52c0,.18-.15,.33-.33,.33s-.33-.15-.33-.33,.15-.33,.33-.33,.33,.15,.33,.33Z"/>
  <path class="cls-1" d="M510.29,175.82c0,.11-.09,.2-.2,.2s-.2-.09-.2-.2,.09-.2,.2-.2,.2,.09,.2,.2Z"/>
  <circle class="cls-1" cx="592" cy="74" r="1"/>
  <path class="cls-1" d="M498.05,111.82c0,.4-.32,.72-.72,.72s-.72-.32-.72-.72,.32-.72,.72-.72,.72,.32,.72,.72Z"/>
  <path class="cls-1" d="M589.25,170.73c0,.49-.4,.9-.9,.9s-.89-.4-.89-.9,.4-.89,.89-.89,.9,.4,.9,.89Z"/>
  <circle class="cls-1" cx="577.47" cy="110.88" r=".54"/>
  <circle class="cls-1" cx="535.5" cy="42.57" r=".77"/>
  <path class="cls-1" d="M598.29,50.24c0,.4-.32,.72-.72,.72s-.72-.32-.72-.72,.32-.72,.72-.72,.72,.32,.72,.72Z"/>
  <circle class="cls-1" cx="588.2" cy="139.96" r=".52"/>
  <circle class="cls-1" cx="542.23" cy="186.47" r=".41"/>
  <path class="cls-1" d="M527.93,100.04c0,.39-.32,.71-.71,.71s-.71-.32-.71-.71,.32-.71,.71-.71,.71,.32,.71,.71Z"/>
  <path class="cls-1" d="M463.09,11.77c0,.27-.22,.49-.49,.49s-.49-.22-.49-.49,.22-.49,.49-.49,.49,.22,.49,.49Z"/>
  <path class="cls-1" d="M531.51,134.78c0,.23-.19,.43-.43,.43s-.43-.19-.43-.43,.19-.43,.43-.43,.43,.19,.43,.43Z"/>
  <circle class="cls-1" cx="513.45" cy="191.55" r=".38"/>
  <circle class="cls-1" cx="601.23" cy=".6" r=".6" transform="translate(.04 7.7) rotate(-.73)"/>
  <path class="cls-1" d="M528.61,71.52c0,.3-.24,.54-.54,.54s-.54-.24-.54-.54,.24-.54,.54-.54,.54,.24,.54,.54Z"/>
  <path class="cls-1" d="M664.25,68.69c0,.3-.25,.55-.55,.55s-.55-.25-.55-.55,.25-.55,.55-.55,.55,.25,.55,.55Z"/>
  <path class="cls-1" d="M648.78,145.44c0,.16-.13,.29-.29,.29s-.29-.13-.29-.29,.13-.29,.29-.29,.29,.13,.29,.29Z"/>
  <path class="cls-1" d="M521.9,93.02c0,.45-.36,.81-.81,.81s-.81-.36-.81-.81,.36-.81,.81-.81,.81,.36,.81,.81Z"/>
  <circle class="cls-1" cx="482.21" cy="21.27" r=".64"/>
  <circle class="cls-1" cx="425.12" cy="189.12" r=".54"/>
  <path class="cls-1" d="M337.09,188.73c0,.22-.18,.41-.41,.41s-.41-.18-.41-.41,.18-.41,.41-.41,.41,.18,.41,.41Z"/>
  <path class="cls-1" d="M430.83,83.18c0,.36-.29,.65-.65,.65s-.65-.29-.65-.65,.29-.65,.65-.65,.65,.29,.65,.65Z"/>
  <path class="cls-1" d="M391.35,124.37c0,.24-.19,.43-.43,.43s-.43-.19-.43-.43,.19-.43,.43-.43,.43,.19,.43,.43Z"/>
  <path class="cls-1" d="M331.32,64.55c0,.18-.15,.33-.33,.33s-.33-.15-.33-.33,.15-.33,.33-.33,.33,.15,.33,.33Z"/>
  <circle class="cls-1" cx="557.9" cy="84.9" r=".55"/>
  <path class="cls-1" d="M490.45,119.21c0,.3-.24,.55-.55,.55s-.55-.24-.55-.55,.24-.55,.55-.55,.55,.24,.55,.55Z"/>
  <circle class="cls-1" cx="549.28" cy="26.1" r=".48"/>
  <path class="cls-1" d="M613.77,15.23c0,.25-.2,.45-.45,.45s-.45-.2-.45-.45,.2-.45,.45-.45,.45,.2,.45,.45Z"/>
  <path class="cls-1" d="M619.95,61.64c0,.16-.13,.28-.28,.28s-.28-.13-.28-.28,.13-.28,.28-.28,.28,.13,.28,.28Z"/>
  <path class="cls-1" d="M609.89,136.4c0,.15-.12,.27-.27,.27s-.27-.12-.27-.27,.12-.27,.27-.27,.27,.12,.27,.27Z"/>
  <path class="cls-1" d="M689.15,118.09c0,.1-.08,.18-.18,.18s-.18-.08-.18-.18,.08-.18,.18-.18,.18,.08,.18,.18Z"/>
  <circle class="cls-1" cx="507" cy="122" r="1"/>
  <path class="cls-1" d="M454.44,173.19c0,.52-.42,.95-.95,.95s-.95-.42-.95-.95,.42-.95,.95-.95,.95,.42,.95,.95Z"/>
  <path class="cls-1" d="M430.69,149.34c0,.54-.44,.97-.97,.97s-.97-.44-.97-.97,.44-.97,.97-.97,.97,.44,.97,.97Z"/>
  <path class="cls-1" d="M509.75,194.89c0,.29-.24,.53-.53,.53s-.53-.24-.53-.53,.24-.53,.53-.53,.53,.24,.53,.53Z"/>
  <path class="cls-1" d="M578.37,88.01c0,.42-.34,.76-.76,.76s-.76-.34-.76-.76,.34-.76,.76-.76,.76,.34,.76,.76Z"/>
  <path class="cls-1" d="M596.6,51.07c0,.23-.18,.41-.41,.41s-.41-.18-.41-.41,.18-.41,.41-.41,.41,.18,.41,.41Z"/>
  <path class="cls-1" d="M483.16,128.78c0,.35-.28,.63-.63,.63s-.63-.28-.63-.63,.28-.63,.63-.63,.63,.28,.63,.63Z"/>
  <path class="cls-1" d="M523.36,161.68c0,.33-.27,.6-.6,.6s-.6-.27-.6-.6,.27-.6,.6-.6,.6,.27,.6,.6Z"/>
  <circle class="cls-1" cx="504.72" cy="183.24" r=".58"/>
  <circle class="cls-1" cx="456.66" cy="169.31" r=".45"/>
  <circle class="cls-1" cx="493.79" cy="153.81" r=".52"/>
  <path class="cls-1" d="M553.53,71.62c0,.22-.18,.4-.4,.4s-.4-.18-.4-.4,.18-.4,.4-.4,.4,.18,.4,.4Z"/>
  <path class="cls-1" d="M544.51,142.67c0,.31-.25,.55-.55,.55s-.55-.25-.55-.55,.25-.55,.55-.55,.55,.25,.55,.55Z"/>
  <path class="cls-1" d="M553.01,182.78c0,.26-.21,.47-.47,.47s-.47-.21-.47-.47,.21-.47,.47-.47,.47,.21,.47,.47Z"/>
  <path class="cls-1" d="M473.8,53.23c0,.16-.13,.29-.29,.29s-.29-.13-.29-.29,.13-.29,.29-.29,.29,.13,.29,.29Z"/>
  <path class="cls-1" d="M443.27,30.28c0,.1-.08,.18-.18,.18s-.18-.08-.18-.18,.08-.18,.18-.18,.18,.08,.18,.18Z"/>
  <circle class="cls-1" cx="603.09" cy="84.36" r=".98"/>
  <path class="cls-1" d="M552.42,59.34c0,.44-.36,.8-.8,.8s-.8-.36-.8-.8,.36-.8,.8-.8,.8,.36,.8,.8Z"/>
  <path class="cls-1" d="M512.8,21.96c0,.28-.23,.52-.52,.52s-.52-.23-.52-.52,.23-.52,.52-.52,.52,.23,.52,.52Z"/>
  <circle class="cls-1" cx="462.71" cy="102" r=".29"/>
  <path class="cls-1" d="M523.87,62.84c0,.37-.3,.67-.67,.67s-.67-.3-.67-.67,.3-.67,.67-.67,.67,.3,.67,.67Z"/>
  <circle class="cls-1" cx="479.62" cy="143.99" r=".45"/>
  <path class="cls-1" d="M585.57,78.59c0,.35-.28,.63-.62,.63s-.62-.28-.62-.63,.28-.62,.62-.62,.62,.28,.62,.62Z"/>
  <circle class="cls-1" cx="533.87" cy="40.06" r=".58"/>
  <path class="cls-1" d="M509.92,177.17c0,.46-.38,.84-.84,.84s-.84-.38-.84-.84,.38-.84,.84-.84,.84,.38,.84,.84Z"/>
  <circle class="cls-1" cx="500.61" cy="216.07" r=".6"/>
  <path class="cls-1" d="M531.62,115.8c0,.42-.34,.76-.76,.76s-.76-.34-.76-.76,.34-.76,.76-.76,.76,.34,.76,.76Z"/>
  <circle class="cls-1" cx="453.29" cy="167.67" r=".58"/>
  <path class="cls-1" d="M535.6,169.4c0,.35-.29,.64-.64,.64s-.64-.29-.64-.64,.29-.64,.64-.64,.64,.29,.64,.64Z"/>
  <path class="cls-1" d="M600.26,251.01c0,.27-.22,.49-.49,.49s-.49-.22-.49-.49,.22-.49,.49-.49,.49,.22,.49,.49Z"/>
  <path class="cls-1" d="M570.83,115.49c0,.3-.25,.55-.55,.55s-.55-.25-.55-.55,.25-.55,.55-.55,.55,.25,.55,.55Z"/>
  <path class="cls-1" d="M486.62,199.14c0,.27-.22,.48-.48,.48s-.48-.22-.48-.48,.22-.48,.48-.48,.48,.22,.48,.48Z"/>
  <circle class="cls-1" cx="634" cy="194" r="1"/>
  <path class="cls-1" d="M619.84,127.8c0,.38-.3,.68-.68,.68s-.68-.3-.68-.68,.3-.68,.68-.68,.68,.3,.68,.68Z"/>
  <path class="cls-1" d="M671.48,132.73c0,.42-.34,.76-.76,.76s-.76-.34-.76-.76,.34-.76,.76-.76,.76,.34,.76,.76Z"/>
  <circle class="cls-1" cx="565.68" cy="232.69" r=".84"/>
  <path class="cls-1" d="M507.01,205.19c0,.38-.31,.68-.68,.68s-.68-.31-.68-.68,.31-.68,.68-.68,.68,.31,.68,.68Z"/>
  <path class="cls-1" d="M634.54,192.66c0,.36-.29,.64-.64,.64s-.64-.29-.64-.64,.29-.64,.64-.64,.64,.29,.64,.64Z"/>
  <path class="cls-1" d="M683.49,198.15c0,.31-.25,.57-.57,.57s-.57-.25-.57-.57,.25-.57,.57-.57,.57,.25,.57,.57Z"/>
  <path class="cls-1" d="M645.54,274.36c0,.31-.25,.56-.56,.56s-.56-.25-.56-.56,.25-.56,.56-.56,.56,.25,.56,.56Z"/>
  <path class="cls-1" d="M597.28,177.75c0,.16-.13,.29-.29,.29s-.29-.13-.29-.29,.13-.29,.29-.29,.29,.13,.29,.29Z"/>
  <path class="cls-1" d="M530.92,173.16c0,.14-.11,.26-.26,.26s-.26-.11-.26-.26,.11-.26,.26-.26,.26,.11,.26,.26Z"/>
  <circle class="cls-1" cx="503.65" cy="260.51" r=".17"/>
  <path class="cls-1" d="M552.17,251.45c0,.07-.06,.13-.13,.13s-.13-.06-.13-.13,.06-.13,.13-.13,.13,.06,.13,.13Z"/>
  <path class="cls-1" d="M573.79,149.93c0,.54-.44,.97-.97,.97s-.97-.44-.97-.97,.44-.97,.97-.97,.97,.44,.97,.97Z"/>
  <path class="cls-1" d="M615.56,175.26c0,.39-.31,.7-.7,.7s-.7-.31-.7-.7,.31-.7,.7-.7,.7,.31,.7,.7Z"/>
  <path class="cls-1" d="M546.72,176.26c0,.53-.43,.96-.96,.96s-.96-.43-.96-.96,.43-.96,.96-.96,.96,.43,.96,.96Z"/>
  <circle class="cls-1" cx="617.75" cy="200.38" r=".72"/>
  <path class="cls-1" d="M544.44,64.17c0,.32-.26,.58-.58,.58s-.58-.26-.58-.58,.26-.58,.58-.58,.58,.26,.58,.58Z"/>
  <path class="cls-1" d="M594.63,97.74c0,.24-.19,.43-.43,.43s-.43-.19-.43-.43,.19-.43,.43-.43,.43,.19,.43,.43Z"/>
  <circle class="cls-1" cx="574.51" cy="120.94" r=".37"/>
  <path class="cls-1" d="M589.15,54.16c0,.49-.4,.89-.89,.89s-.89-.4-.89-.89,.4-.89,.89-.89,.89,.4,.89,.89Z"/>
  <path class="cls-1" d="M649.32,140.86c0,.46-.37,.83-.83,.83s-.83-.37-.83-.83,.37-.83,.83-.83,.83,.37,.83,.83Z"/>
  <circle class="cls-1" cx="573.12" cy="153.91" r=".75"/>
  <path class="cls-1" d="M525.98,45.96c0,.27-.22,.5-.5,.5s-.5-.22-.5-.5,.22-.5,.5-.5,.5,.22,.5,.5Z"/>
  <circle class="cls-1" cx="506.05" cy="126.57" r=".45"/>
  <path class="cls-1" d="M543.76,135.04c0,.26-.21,.48-.48,.48s-.48-.21-.48-.48,.21-.48,.48-.48,.48,.21,.48,.48Z"/>
  <path class="cls-1" d="M532.15,92.93c0,.24-.19,.43-.43,.43s-.43-.19-.43-.43,.19-.43,.43-.43,.43,.19,.43,.43Z"/>
  <circle class="cls-1" cx="121" cy="131" r="1"/>
  <path class="cls-1" d="M105.97,164.41c0,.45-.36,.81-.81,.81s-.81-.36-.81-.81,.36-.81,.81-.81,.81,.36,.81,.81Z"/>
  <path class="cls-1" d="M201.69,133.11c0,.33-.27,.6-.6,.6s-.6-.27-.6-.6,.27-.6,.6-.6,.6,.27,.6,.6Z"/>
  <path class="cls-1" d="M149.39,193.4c0,.24-.2,.44-.44,.44s-.44-.2-.44-.44,.2-.44,.44-.44,.44,.2,.44,.44Z"/>
  <circle class="cls-1" cx="72.56" cy="174.74" r=".95"/>
  <circle class="cls-1" cx="172.24" cy="102.07" r=".54"/>
  <path class="cls-1" d="M131.31,200.69c0,.51-.41,.92-.92,.92s-.92-.41-.92-.92,.41-.92,.92-.92,.92,.41,.92,.92Z"/>
  <circle class="cls-1" cx="137.39" cy="268.9" r=".56"/>
  <path class="cls-1" d="M115.17,134.68c0,.43-.35,.77-.77,.77s-.77-.35-.77-.77,.35-.77,.77-.77,.77,.35,.77,.77Z"/>
  <circle class="cls-1" cx="150.3" cy="116.27" r=".46"/>
  <path class="cls-1" d="M198.4,121.35c0,.33-.27,.6-.6,.6s-.6-.27-.6-.6,.27-.6,.6-.6,.6,.27,.6,.6Z"/>
  <path class="cls-1" d="M158.19,29.03c0,.19-.16,.35-.35,.35s-.35-.16-.35-.35,.16-.35,.35-.35,.35,.16,.35,.35Z"/>
  <circle class="cls-1" cx="152.37" cy="207.65" r=".65"/>
  <circle class="cls-1" cx="110.56" cy="257.17" r=".4"/>
  <circle class="cls-1" cx="158.46" cy="115.13" r=".33"/>
  <circle class="cls-1" cx="202.76" cy="153.8" r=".18"/>
  <path class="cls-1" d="M35.74,212.66c0,.28-.23,.51-.51,.51s-.51-.23-.51-.51,.23-.51,.51-.51,.51,.23,.51,.51Z"/>
  <circle class="cls-1" cx="70.26" cy="130.48" r=".31"/>
  <path class="cls-1" d="M102.37,107.66c0,.13-.1,.23-.23,.23s-.23-.1-.23-.23,.1-.23,.23-.23,.23,.1,.23,.23Z"/>
  <circle class="cls-1" cx="77.83" cy="271.31" r=".35"/>
  <circle class="cls-1" cx="12.22" cy="347.22" r=".21"/>
  <circle class="cls-1" cx="79.25" cy="290.41" r=".33"/>
  <path class="cls-1" d="M118.7,253.74c0,.15-.12,.27-.27,.27s-.27-.12-.27-.27,.12-.27,.27-.27,.27,.12,.27,.27Z"/>
  <path class="cls-1" d="M46.99,113.31c0,.24-.19,.44-.44,.44s-.44-.19-.44-.44,.19-.44,.44-.44,.44,.19,.44,.44Z"/>
  <path class="cls-1" d="M26.19,103.94c0,.18-.14,.32-.32,.32s-.32-.14-.32-.32,.14-.32,.32-.32,.32,.14,.32,.32Z"/>
  <circle class="cls-1" cx="62.81" cy="47.29" r=".38"/>
  <circle class="cls-1" cx="51.39" cy="112.57" r=".19"/>
  <circle class="cls-1" cx="33.85" cy="146.05" r=".11"/>
  <circle class="cls-1" cx="202" cy="41" r="1"/>
  <path class="cls-1" d="M179.07,117.33c0,.46-.37,.84-.84,.84s-.84-.37-.84-.84,.37-.84,.84-.84,.84,.37,.84,.84Z"/>
  <path class="cls-1" d="M161.72,125.9c0,.33-.27,.59-.59,.59s-.59-.27-.59-.59,.27-.59,.59-.59,.59,.27,.59,.59Z"/>
  <circle class="cls-1" cx="216.98" cy="142.39" r=".34"/>
  <path class="cls-1" d="M145.95,64.7c0,.28-.23,.51-.51,.51s-.51-.23-.51-.51,.23-.51,.51-.51,.51,.23,.51,.51Z"/>
  <path class="cls-1" d="M217.05,15.35c0,.16-.13,.29-.29,.29s-.29-.13-.29-.29,.13-.29,.29-.29,.29,.13,.29,.29Z"/>
  <path class="cls-1" d="M60.88,133.12c0,.27-.22,.5-.5,.5s-.5-.22-.5-.5,.22-.5,.5-.5,.5,.22,.5,.5Z"/>
  <path class="cls-1" d="M133.32,54.25c0,.21-.17,.38-.38,.38s-.38-.17-.38-.38,.17-.38,.38-.38,.38,.17,.38,.38Z"/>
  <path class="cls-1" d="M228.17,140.05c0,.42-.34,.76-.76,.76s-.76-.34-.76-.76,.34-.76,.76-.76,.76,.34,.76,.76Z"/>
  <path class="cls-1" d="M236.67,203.6c0,.41-.34,.75-.75,.75s-.75-.34-.75-.75,.34-.75,.75-.75,.75,.34,.75,.75Z"/>
  <path class="cls-1" d="M281.93,193.44c0,.28-.23,.51-.51,.51s-.51-.23-.51-.51,.23-.51,.51-.51,.51,.23,.51,.51Z"/>
  <path class="cls-1" d="M182.68,117.42c0,.17-.14,.31-.31,.31s-.31-.14-.31-.31,.14-.31,.31-.31,.31,.14,.31,.31Z"/>
  <path class="cls-1" d="M306.51,191.44c0,.4-.32,.72-.72,.72s-.72-.32-.72-.72,.32-.72,.72-.72,.72,.32,.72,.72Z"/>
  <path class="cls-1" d="M318.08,199.46c0,.28-.22,.5-.5,.5s-.5-.22-.5-.5,.22-.5,.5-.5,.5,.22,.5,.5Z"/>
  <circle class="cls-1" cx="366.42" cy="148.9" r=".66"/>
  <path class="cls-1" d="M312.57,109.68c0,.22-.18,.39-.39,.39s-.39-.18-.39-.39,.18-.39,.39-.39,.39,.18,.39,.39Z"/>
  <path class="cls-1" d="M196.38,90.81c0,.38-.31,.69-.69,.69s-.69-.31-.69-.69,.31-.69,.69-.69,.69,.31,.69,.69Z"/>
  <path class="cls-1" d="M165.31,28.25c0,.34-.28,.62-.62,.62s-.62-.28-.62-.62,.28-.62,.62-.62,.62,.28,.62,.62Z"/>
  <path class="cls-1" d="M115.17,16.38c0,.34-.28,.62-.62,.62s-.62-.28-.62-.62,.28-.62,.62-.62,.62,.28,.62,.62Z"/>
  <circle class="cls-1" cx="18.62" cy="29.16" r=".44"/>
  <path class="cls-1" d="M175.94,95.04c0,.34-.27,.61-.61,.61s-.61-.27-.61-.61,.27-.61,.61-.61,.61,.27,.61,.61Z"/>
  <path class="cls-1" d="M241.53,171.28c0,.31-.25,.55-.55,.55s-.55-.25-.55-.55,.25-.55,.55-.55,.55,.25,.55,.55Z"/>
  <path class="cls-1" d="M112.13,112.65c0,.25-.2,.45-.45,.45s-.45-.2-.45-.45,.2-.45,.45-.45,.45,.2,.45,.45Z"/>
  <path class="cls-1" d="M26.24,188.47c0,.22-.18,.4-.4,.4s-.4-.18-.4-.4,.18-.4,.4-.4,.4,.18,.4,.4Z"/>
  <circle class="cls-1" cx="46" cy="56" r="1"/>
  <path class="cls-1" d="M85.73,148.38c0,.36-.29,.65-.65,.65s-.65-.29-.65-.65,.29-.65,.65-.65,.65,.29,.65,.65Z"/>
  <path class="cls-1" d="M82.61,89.95c0,.31-.25,.57-.57,.57s-.57-.25-.57-.57,.25-.57,.57-.57,.57,.25,.57,.57Z"/>
  <path class="cls-1" d="M120.08,96.39c0,.23-.19,.41-.41,.41s-.41-.19-.41-.41,.19-.41,.41-.41,.41,.19,.41,.41Z"/>
  <path class="cls-1" d="M62.03,107.19c0,.22-.18,.4-.4,.4s-.4-.18-.4-.4,.18-.4,.4-.4,.4,.18,.4,.4Z"/>
  <circle class="cls-1" cx="110.57" cy="178.42" r=".33"/>
  <path class="cls-1" d="M89.95,108.98c0,.18-.15,.33-.33,.33s-.33-.15-.33-.33,.15-.33,.33-.33,.33,.15,.33,.33Z"/>
  <path class="cls-1" d="M35.11,27.32c0,.23-.19,.42-.42,.42s-.42-.19-.42-.42,.19-.42,.42-.42,.42,.19,.42,.42Z"/>
  <path class="cls-1" d="M10.02,141.12c0,.22-.18,.4-.4,.4s-.4-.18-.4-.4,.18-.4,.4-.4,.4,.18,.4,.4Z"/>
  <circle class="cls-1" cx="55.21" cy="186.2" r=".48"/>
  <circle class="cls-1" cx="80.23" cy="211.08" r=".26"/>
  <circle class="cls-1" cx="87.61" cy="310.7" r=".21"/>
  <circle class="cls-1" cx="17.6" cy="105.69" r=".52"/>
  <circle class="cls-1" cx="58.02" cy="82.47" r=".36"/>
  <path class="cls-1" d="M32.8,92.56c0,.19-.15,.34-.34,.34s-.34-.15-.34-.34,.15-.34,.34-.34,.34,.15,.34,.34Z"/>
  <circle class="cls-1" cx="70.53" cy="174.18" r=".29"/>
  <path class="cls-1" d="M94,150.98c0,.16-.13,.28-.28,.28s-.28-.13-.28-.28,.13-.28,.28-.28,.28,.13,.28,.28Z"/>
  <circle class="cls-1" cx="26.7" cy="181.81" r=".17"/>
  <path class="cls-1" d="M32.16,168.14c0,.13-.11,.24-.24,.24s-.24-.11-.24-.24,.11-.24,.24-.24,.24,.11,.24,.24Z"/>
  <circle class="cls-1" cx="37.52" cy="179.76" r=".16"/>
  <circle class="cls-1" cx="332" cy="55" r="1"/>
  <path class="cls-1" d="M383.63,22.94c0,.43-.35,.78-.78,.78s-.78-.35-.78-.78,.35-.78,.78-.78,.78,.35,.78,.78Z"/>
  <path class="cls-1" d="M329.73,144.8c0,.29-.24,.53-.53,.53s-.53-.24-.53-.53,.24-.53,.53-.53,.53,.24,.53,.53Z"/>
  <circle class="cls-1" cx="255.87" cy="147.72" r=".39"/>
  <path class="cls-1" d="M269.81,206.98c0,.15-.12,.28-.28,.28s-.28-.12-.28-.28,.12-.28,.28-.28,.28,.12,.28,.28Z"/>
  <path class="cls-1" d="M209.9,171.43c0,.13-.1,.23-.23,.23s-.23-.1-.23-.23,.1-.23,.23-.23,.23,.1,.23,.23Z"/>
  <path class="cls-1" d="M316.97,63.01c0,.37-.3,.66-.66,.66s-.66-.3-.66-.66,.3-.66,.66-.66,.66,.3,.66,.66Z"/>
  <path class="cls-1" d="M313.35,43.15c0,.33-.26,.59-.59,.59s-.59-.26-.59-.59,.26-.59,.59-.59,.59,.26,.59,.59Z"/>
  <path class="cls-1" d="M340,110.91c0,.33-.27,.6-.6,.6s-.6-.27-.6-.6,.27-.6,.6-.6,.6,.27,.6,.6Z"/>
  <path class="cls-1" d="M430.7,155.04c0,.22-.17,.39-.39,.39s-.39-.17-.39-.39,.17-.39,.39-.39,.39,.17,.39,.39Z"/>
  <path class="cls-1" d="M336.52,151.15c0,.35-.29,.64-.64,.64s-.64-.29-.64-.64,.29-.64,.64-.64,.64,.29,.64,.64Z"/>
  <path class="cls-1" d="M345.85,224.92c0,.35-.28,.63-.63,.63s-.63-.28-.63-.63,.28-.63,.63-.63,.63,.28,.63,.63Z"/>
  <path class="cls-1" d="M404.68,160.66c0,.23-.18,.41-.41,.41s-.41-.18-.41-.41,.18-.41,.41-.41,.41,.18,.41,.41Z"/>
  <circle class="cls-1" cx="319.81" cy="155.7" r=".31"/>
  <circle class="cls-1" cx="235.89" cy="73.46" r=".93"/>
  <path class="cls-1" d="M243.51,129.89c0,.36-.29,.65-.65,.65s-.65-.29-.65-.65,.29-.65,.65-.65,.65,.29,.65,.65Z"/>
  <circle class="cls-1" cx="197.22" cy="60.14" r=".68"/>
  <path class="cls-1" d="M274.15,145.34c0,.33-.27,.6-.6,.6s-.6-.27-.6-.6,.27-.6,.6-.6,.6,.27,.6,.6Z"/>
  <path class="cls-1" d="M173.15,108.25c0,.28-.22,.5-.5,.5s-.5-.22-.5-.5,.22-.5,.5-.5,.5,.22,.5,.5Z"/>
  <path class="cls-1" d="M142.67,49.24c0,.19-.15,.34-.34,.34s-.34-.15-.34-.34,.15-.34,.34-.34,.34,.15,.34,.34Z"/>
  <circle class="cls-1" cx="267.92" cy="91.53" r=".45"/>
  <path class="cls-1" d="M361.8,85.46c0,.2-.16,.36-.36,.36s-.36-.16-.36-.36,.16-.36,.36-.36,.36,.16,.36,.36Z"/>
  <path class="cls-1" d="M257.81,97.54c0,.51-.41,.92-.92,.92s-.92-.41-.92-.92,.41-.92,.92-.92,.92,.41,.92,.92Z"/>
  <path class="cls-1" d="M309.91,161.68c0,.43-.35,.78-.78,.78s-.78-.35-.78-.78,.35-.78,.78-.78,.78,.35,.78,.78Z"/>
  <circle class="cls-1" cx="288.28" cy="95.12" r=".9"/>
  <circle class="cls-1" cx="267.72" cy="54.57" r=".79"/>
  <path class="cls-1" d="M204.95,166.55c0,.45-.36,.81-.81,.81s-.81-.36-.81-.81,.36-.81,.81-.81,.81,.36,.81,.81Z"/>
  <path class="cls-1" d="M296.33,154.13c0,.41-.34,.75-.75,.75s-.75-.34-.75-.75,.34-.75,.75-.75,.75,.34,.75,.75Z"/>
  <path class="cls-1" d="M280.47,159.5c0,.24-.19,.43-.43,.43s-.43-.19-.43-.43,.19-.43,.43-.43,.43,.19,.43,.43Z"/>
  <circle class="cls-1" cx="239.79" cy="113.4" r=".23"/>
  <circle class="cls-1" cx="241" cy="161" r="1"/>
  <path class="cls-1" d="M204.04,191.68c0,.35-.28,.63-.63,.63s-.63-.28-.63-.63,.28-.63,.63-.63,.63,.28,.63,.63Z"/>
  <circle class="cls-1" cx="217.06" cy="162.09" r=".53"/>
  <path class="cls-1" d="M279.94,114.92c0,.16-.13,.29-.29,.29s-.28-.13-.28-.29,.13-.29,.28-.29,.29,.13,.29,.29Z"/>
  <path class="cls-1" d="M245.48,151.52c0,.39-.32,.71-.71,.71s-.71-.32-.71-.71,.32-.71,.71-.71,.71,.32,.71,.71Z"/>
  <circle class="cls-1" cx="303" cy="112.66" r=".54"/>
  <path class="cls-1" d="M149.79,206.22c0,.38-.31,.68-.68,.68s-.68-.31-.68-.68,.31-.68,.68-.68,.68,.3,.68,.68Z"/>
  <path class="cls-1" d="M199.53,195.52c0,.35-.28,.63-.63,.63s-.63-.28-.63-.63,.28-.63,.63-.63,.63,.28,.63,.63Z"/>
  <path class="cls-1" d="M155.71,188.52c0,.38-.31,.7-.7,.7s-.7-.31-.7-.7,.31-.7,.7-.7,.7,.31,.7,.7Z"/>
  <path class="cls-1" d="M80.6,199.8c0,.19-.16,.35-.35,.35s-.35-.16-.35-.35,.16-.35,.35-.35,.35,.16,.35,.35Z"/>
  <circle class="cls-1" cx="80.7" cy="201.03" r=".69"/>
  <circle class="cls-1" cx="60.36" cy="223.76" r=".46"/>
  <path class="cls-1" d="M61.42,233.26c0,.35-.28,.63-.63,.63s-.63-.28-.63-.63,.28-.63,.63-.63,.63,.28,.63,.63Z"/>
  <circle class="cls-1" cx="38.7" cy="214.93" r=".63"/>
  <circle class="cls-1" cx="110.32" cy="328.62" r=".39"/>
  <path class="cls-1" d="M113.18,361.02c0,.13-.11,.24-.24,.24s-.24-.11-.24-.24,.11-.24,.24-.24,.24,.11,.24,.24Z"/>
  <path class="cls-1" d="M231.86,188.01c0,.49-.4,.88-.88,.88s-.88-.4-.88-.88,.4-.88,.88-.88,.88,.4,.88,.88Z"/>
  <circle class="cls-1" cx="149.27" cy="154.42" r=".61"/>
  <path class="cls-1" d="M160.58,275.26c0,.4-.32,.72-.72,.72s-.72-.32-.72-.72,.32-.72,.72-.72,.72,.32,.72,.72Z"/>
  <circle class="cls-1" cx="135.4" cy="366.67" r=".54"/>
  <circle class="cls-1" cx="244.94" cy="263.1" r=".77"/>
  <path class="cls-1" d="M316.38,272.13c0,.22-.18,.4-.4,.4s-.4-.18-.4-.4,.18-.4,.4-.4,.4,.18,.4,.4Z"/>
  <path class="cls-1" d="M248.77,362.89c0,.4-.32,.72-.72,.72s-.72-.32-.72-.72,.32-.72,.72-.72,.72,.32,.72,.72Z"/>
  <path class="cls-1" d="M159.42,375.84c0,.36-.29,.65-.65,.65s-.65-.29-.65-.65,.29-.65,.65-.65,.65,.29,.65,.65Z"/>
  <path class="cls-1" d="M139.32,268.47c0,.35-.28,.63-.63,.63s-.63-.28-.63-.63,.28-.63,.63-.63,.63,.28,.63,.63Z"/>
  <path class="cls-1" d="M128.28,270.75c0,.19-.15,.34-.34,.34s-.34-.15-.34-.34,.15-.34,.34-.34,.34,.15,.34,.34Z"/>
  <path class="cls-1" d="M135.74,360.3c0,.22-.18,.39-.39,.39s-.39-.18-.39-.39,.18-.39,.39-.39,.39,.18,.39,.39Z"/>
  <path class="cls-1" d="M64.73,373.51c0,.21-.17,.38-.38,.38s-.38-.17-.38-.38,.17-.38,.38-.38,.38,.17,.38,.38Z"/>
  <circle class="cls-1" cx="103.57" cy="175.97" r=".34"/>
  <path class="cls-1" d="M170.3,177.41c0,.16-.13,.29-.29,.29s-.29-.13-.29-.29,.13-.29,.29-.29,.29,.13,.29,.29Z"/>
  <path class="cls-1" d="M138.23,169.15c0,.12-.1,.22-.22,.22s-.22-.1-.22-.22,.1-.22,.22-.22,.22,.1,.22,.22Z"/>
  <circle class="cls-1" cx="173.44" cy="196.21" r=".22"/>
</svg>